<svg width="126" height="102" viewBox="0 0 126 102" fill="none" xmlns="http://www.w3.org/2000/svg">
<path d="M11.9725 74.8875C8.03692 74.8875 4.35804 73.7539 0.935834 71.4867L3.95165 63.53C5.66276 64.1289 7.1172 64.4284 8.31497 64.4284C11.1811 64.4284 12.6141 62.6531 12.6141 59.1026V27.8535H26.4099V59.1026C26.4099 64.022 25.1266 67.8933 22.5599 70.7167C19.9933 73.4972 16.4641 74.8875 11.9725 74.8875ZM48.415 73.0267C42.3833 73.0267 37.2928 71.9144 33.1434 69.69L36.3517 59.7442C40.7578 61.327 44.6933 62.1184 48.1583 62.1184C50.0405 62.1184 51.4094 61.9045 52.2649 61.4767C53.1633 61.0062 53.6124 60.3217 53.6124 59.4234C53.6124 58.8245 53.3772 58.3112 52.9066 57.8834C52.4361 57.4128 51.495 56.8995 50.0833 56.3434C48.6716 55.7873 46.5541 55.1028 43.7308 54.2901C40.2658 53.2634 37.5708 51.5951 35.6458 49.2851C33.7209 46.9323 32.7584 44.2373 32.7584 41.2001C32.7584 36.4946 34.2984 32.944 37.3783 30.5485C40.5011 28.1102 44.6933 26.891 49.955 26.891C52.6927 26.891 55.3877 27.1905 58.0399 27.7893C60.6921 28.3455 63.0449 29.1796 65.0982 30.2918L61.6332 39.981C59.2377 39.1682 57.1416 38.5907 55.3449 38.2485C53.5911 37.8635 51.88 37.671 50.2116 37.671C47.3883 37.671 45.9766 38.441 45.9766 39.981C45.9766 40.751 46.4258 41.414 47.3241 41.9701C48.2652 42.4835 50.1688 43.1465 53.0349 43.9593C57.5266 45.1571 60.9274 46.9965 63.2374 49.4776C65.5474 51.9159 66.7024 54.8462 66.7024 58.2684C66.7024 63.0167 65.1624 66.6742 62.0824 69.2408C59.0024 71.7647 54.4466 73.0267 48.415 73.0267ZM72.721 27.8535H86.0676L97.1042 49.2851L107.884 27.8535H121.231V72H107.884V48.4509L99.7351 63.8509H94.2809L86.0676 48.4509V72H72.721V27.8535Z" fill="url(#paint0_linear_328_346)"/>
<path d="M21.5392 96.0763V82.9312H16.4012V81.352H28.3453V82.9312H23.2073V96.0763H21.5392ZM33.3593 96.0763V81.352H40.41C41.9225 81.352 43.1236 81.7672 44.0133 82.5976C44.9178 83.4279 45.37 84.5475 45.37 85.9561C45.37 86.9051 45.1847 87.6614 44.814 88.2248C44.4581 88.7883 44.0059 89.2183 43.4572 89.5149C42.9086 89.7966 42.3599 90.0042 41.8113 90.1376L45.6814 96.0763H43.7019L40.1431 90.4268H35.0274V96.0763H33.3593ZM35.0274 88.8476H40.1209C40.6547 88.8476 41.1959 88.766 41.7446 88.6029C42.2932 88.4398 42.7529 88.1507 43.1236 87.7355C43.5091 87.3055 43.7019 86.7124 43.7019 85.9561C43.7019 85.022 43.3831 84.288 42.7455 83.7542C42.1079 83.2055 41.2627 82.9312 40.2099 82.9312H35.0274V88.8476ZM49.3946 96.0763L55.6447 81.352H57.7354L63.9855 96.0763H62.1394L60.3378 91.8058H53.0424L51.2407 96.0763H49.3946ZM53.6874 90.2711H59.6927L56.6901 83.0869L53.6874 90.2711ZM72.018 96.0763L66.0571 81.352H67.881L72.9744 94.1857L78.0679 81.352H79.8917L73.9308 96.0763H72.018ZM84.65 96.0763V81.352H95.4819V82.9534H86.3181V87.8912H94.5032V89.5149H86.3181V94.4749H95.4819V96.0763H84.65ZM101.074 96.0763V81.352H102.742V94.4749H110.771V96.0763H101.074Z" fill="url(#paint1_linear_328_346)"/>
<defs>
<linearGradient id="paint0_linear_328_346" x1="63.5" y1="0" x2="63.5" y2="90" gradientUnits="userSpaceOnUse">
<stop stop-color="#FF9900"/>
</linearGradient>
<linearGradient id="paint1_linear_328_346" x1="64.0898" y1="78.0763" x2="64.0898" y2="101.076" gradientUnits="userSpaceOnUse">
<stop/>
</linearGradient>
</defs>
</svg>
